<svg xmlns="http://www.w3.org/2000/svg" width="170.063" height="30" viewBox="0 0 170.063 30">
  <metadata><?xpacket begin="﻿" id="W5M0MpCehiHzreSzNTczkc9d"?>
<x:xmpmeta xmlns:x="adobe:ns:meta/" x:xmptk="Adobe XMP Core 5.6-c142 79.160924, 2017/07/13-01:06:39        ">
   <rdf:RDF xmlns:rdf="http://www.w3.org/1999/02/22-rdf-syntax-ns#">
      <rdf:Description rdf:about=""/>
   </rdf:RDF>
</x:xmpmeta>
<?xpacket end="w"?></metadata>
<defs>
    <style>
      .cls-1 {
        fill: #fff;
        fill-rule: evenodd;
      }
    </style>
  </defs>
  <path id="Combined_Shape" data-name="Combined Shape" class="cls-1" d="M395.653,66.841l-0.128,3.522-0.45-.128-1.087-.172c-2.412,0-3.731,1.759-3.731,4.958l0.006,7.879h-3.589l0.007-15.929h3.3v2.142a4.75,4.75,0,0,1,4.1-2.431l1.238,0.116ZM473.038,73.7c0.257,0.3,8.025,9.2,8.025,9.2h-4.571s-5.5-6.637-6.178-7.45v7.464l-3.59,0V61.87h3.59V72.344l5.336-5.367h4.392s-6.719,6.452-7,6.719M457.9,66.606c3.7,0,5.652,2.367,5.652,6.851V82.9h-3.585V74.1c0-1.735-.334-2.909-1-3.58a2.787,2.787,0,0,0-2.072-.73c-2.361,0-3.761,1.909-3.761,5.121v8l-3.586,0V66.971h3.336v2.087a5.962,5.962,0,0,1,5.021-2.453m-75.366.371V82.9h-3.418V81.168a5.954,5.954,0,0,1-4.645,2.076c-3.932,0-6.009-2.35-6.009-6.826V66.977h3.491v0.21l0.006,8.071c0,3.508.8,4.9,2.834,5.032,3.691,0,4.238-3.666,4.238-5.866V66.977h3.5Zm27.881,1.938a8.41,8.41,0,0,1,2.322,6.032,8.046,8.046,0,1,1-16.087,0c0-4.87,3.308-8.279,8.052-8.279a7.86,7.86,0,0,1,5.713,2.247M404.7,80.234c2.99,0,4.355-2.743,4.355-5.287,0-2.574-1.529-5.3-4.355-5.3-2.85,0-4.38,2.723-4.38,5.3,0,2.544,1.368,5.287,4.38,5.287M427.868,68.5a8.781,8.781,0,0,1,2.24,6.223c0,3.923-1.782,8.527-6.833,8.527a6.64,6.64,0,0,1-4.859-1.986V82.9h-3.38V61.87h3.508v6.72a5.972,5.972,0,0,1,4.692-1.876,6.3,6.3,0,0,1,4.632,1.787m-1.431,6.581c0-.061-0.007-0.113-0.007-0.167s0.007-.122.007-0.185a5.865,5.865,0,0,0-1.362-4.072,3.249,3.249,0,0,0-2.422-.966c-2.83,0-4.109,2.759-4.109,5.325,0,2.543,1.277,5.271,4.079,5.271a3.154,3.154,0,0,0,2.3-.986,6.278,6.278,0,0,0,1.515-4.22M442.6,82.9V81.447a6,6,0,0,1-4.453,1.893c-3.859,0-6.062-1.905-6.062-5.218,0-4.453,4.75-5.652,7.566-5.652,0,0,2.169.043,2.6,0.05-0.114-2.109-1.122-3.024-3.389-3.024a6.7,6.7,0,0,0-4.211,1.474l-0.514.45-0.316-3.1,0.068-.186,0.109-.076a10.456,10.456,0,0,1,5.321-1.489,6.6,6.6,0,0,1,4.891,1.593c1.1,1.1,1.634,2.745,1.623,5.023v6.34l0.122,2.959,0.062,0.413H442.6Zm-4.208-2.472a3.63,3.63,0,0,0,3.9-3.841V75.344l-1.521-.051c-1.546,0-5.126.276-5.126,2.829a2.576,2.576,0,0,0,2.744,2.306h0Zm-73.019-4.478h-10.9a4.685,4.685,0,0,0,5.011,4.521,8.8,8.8,0,0,0,4.134-1.1l0.518-.29v3.167l-0.087.188-0.133.049a12.691,12.691,0,0,1-5.044.9c-4.911,0-7.964-3.3-7.964-8.639,0-4.973,3.053-8.325,7.595-8.325,4.235,0,6.871,3.06,6.871,8v1.527ZM358.341,69.2c-1.99,0-3.4,1.588-3.8,4.106H361.9c-0.3-2.629-1.543-4.106-3.563-4.106h0ZM341,61.828A2.83,2.83,0,0,0,338.171,59H313.835A2.83,2.83,0,0,0,311,61.828V86.159a2.844,2.844,0,0,0,2.835,2.835H338.16A2.839,2.839,0,0,0,341,86.159V61.828ZM326.314,77c1.094,2.672,4.756,3.327,7.517,1.685h0.025a6.9,6.9,0,0,0,2.738-2.926,8.781,8.781,0,0,0,.905-3.6V71.98a9.667,9.667,0,0,0-3.594-7.423l-0.022-.023A12.105,12.105,0,1,0,337.86,77.3l-0.015.064a9.723,9.723,0,0,1-9.047,5.562c-8.11-.3-9.807-9.171-5.585-12.235V70.682a5.064,5.064,0,0,1,3.189-.911,4.033,4.033,0,0,1,3.821,4.244,3.252,3.252,0,0,1-3.4,3.063,2.558,2.558,0,0,1-.5-0.084Z" transform="translate(-311 -59)"/>
</svg>
